<?xml version="1.0" standalone="no"?>
<!DOCTYPE svg PUBLIC "-//W3C//DTD SVG 20010904//EN"
 "http://www.w3.org/TR/2001/REC-SVG-20010904/DTD/svg10.dtd">
<svg version="1.0" xmlns="http://www.w3.org/2000/svg"
 width="512.000000pt" height="512.000000pt" viewBox="0 0 512.000000 512.000000"
 preserveAspectRatio="xMidYMid meet">

<g transform="translate(0.000000,512.000000) scale(0.100000,-0.100000)"
fill="#000000" stroke="none">
<path d="M1617 5110 c-73 -13 -167 -61 -218 -113 -62 -63 -99 -139 -111 -231
l-11 -76 -429 0 c-243 0 -428 -4 -428 -9 0 -34 47 -225 79 -321 97 -289 258
-526 463 -680 77 -58 233 -142 291 -156 l27 -6 0 -169 0 -169 -431 0 -431 0 6
-45 c46 -304 195 -627 389 -841 103 -114 271 -228 404 -276 l63 -23 0 -172 0
-173 -430 0 c-245 0 -430 -4 -430 -9 0 -34 47 -225 79 -321 97 -289 258 -526
463 -680 77 -58 233 -142 291 -156 23 -5 27 -11 27 -43 0 -221 138 -399 336
-431 78 -13 1789 -13 1867 0 185 30 307 167 330 371 l10 88 61 21 c333 119
600 420 737 830 32 96 79 287 79 321 0 5 -190 9 -440 9 l-440 0 0 168 0 168
58 18 c190 60 409 230 539 418 135 195 243 469 279 703 l6 45 -268 0 c-148 0
-347 3 -441 7 l-173 6 0 162 0 162 63 23 c334 119 600 419 738 830 32 96 79
287 79 321 0 5 -190 9 -440 9 l-440 0 0 48 c-1 189 -134 341 -327 372 -70 12
-1807 11 -1876 0z m1087 -440 c201 -51 364 -199 426 -386 34 -100 28 -147 -31
-265 -73 -147 -206 -255 -374 -305 -82 -24 -248 -24 -330 0 -168 50 -301 158
-374 305 -59 118 -65 165 -31 265 96 289 417 462 714 386z m36 -1529 c238 -75
409 -292 427 -542 8 -109 -10 -198 -63 -308 -63 -129 -146 -212 -275 -275
-187 -90 -351 -90 -538 0 -129 63 -212 146 -275 275 -24 52 -50 121 -55 153
-58 325 149 638 470 711 84 19 224 13 309 -14z m13 -1530 c199 -70 344 -230
397 -437 52 -204 -6 -410 -160 -565 -122 -123 -260 -180 -430 -180 -170 0
-308 57 -430 180 -192 194 -233 467 -105 710 82 156 238 275 408 311 71 15
254 5 320 -19z"/>
</g>
</svg>
